HIERARCHY
ROOT Hips
{
  OFFSET 0 0 0
  CHANNELS 6 Xposition Yposition Zposition Zrotation Yrotation Xrotation
  JOINT LeftThigh
  {
    OFFSET 8.409438 0 -5.917753
    CHANNELS 3 Zrotation Yrotation Xrotation
    JOINT LeftLeg
    {
      OFFSET 0 0 -42.358652
      CHANNELS 3 Zrotation Yrotation Xrotation
      JOINT LeftFoot
      {
        OFFSET 0 0 -39.357303
        CHANNELS 3 Zrotation Yrotation Xrotation
      }
    }
  }
  JOINT RightThigh
  {
    OFFSET -8.409438 0 -5.917753
    CHANNELS 3 Zrotation Yrotation Xrotation
    JOINT RightLeg
    {
      OFFSET 0 0 -42.358652
      CHANNELS 3 Zrotation Yrotation Xrotation
      JOINT RightFoot
      {
        OFFSET 0 0 -39.357303
        CHANNELS 3 Zrotation Yrotation Xrotation
      }
    }
  }
  JOINT SpineLow
  {
    OFFSET 0 0 4.719101
    CHANNELS 3 Zrotation Yrotation Xrotation
    JOINT SpineMid
    {
      OFFSET 0 0 12.899191
      CHANNELS 3 Zrotation Yrotation Xrotation
      JOINT Chest
      {
        OFFSET 0 0 12.899191
        CHANNELS 3 Zrotation Yrotation Xrotation
        JOINT LeftShoulder
        {
          OFFSET 7.550562 1.41573 9.438202
          CHANNELS 3 Zrotation Yrotation Xrotation
          JOINT LeftArm
          {
            OFFSET 9.155056 0 4.247191
            CHANNELS 3 Zrotation Yrotation Xrotation
            JOINT LeftForearm
            {
              OFFSET 0 0 25.771955
              CHANNELS 3 Zrotation Yrotation Xrotation
              JOINT LeftHand
              {
                OFFSET 0 0 25.197169
                CHANNELS 3 Zrotation Yrotation Xrotation
              }
            }
          }
        }
        JOINT RightShoulder
        {
          OFFSET -7.550562 1.41573 9.438202
          CHANNELS 3 Zrotation Yrotation Xrotation
          JOINT RightArm
          {
            OFFSET -9.155056 0 4.247191
            CHANNELS 3 Zrotation Yrotation Xrotation
            JOINT RightForearm
            {
              OFFSET 0 0 -25.771955
              CHANNELS 3 Zrotation Yrotation Xrotation
              JOINT RightHand
              {
                OFFSET 0 0 -25.197169
                CHANNELS 3 Zrotation Yrotation Xrotation
              }
            }
          }
        }
        JOINT Neck
        {
          OFFSET 0 0 15.101124
          CHANNELS 3 Zrotation Yrotation Xrotation
          JOINT Head
          {
            OFFSET 0 0 11.325843
            CHANNELS 3 Zrotation Yrotation Xrotation
            End Site
            {
              OFFSET 0 0 14.157303
            }
          }
        }
      }
    }
  }
}
MOTION
Frames: 17
Frame Time: 0.0
0.0  93.25843  0.0  -4.509962  -37.486354  -93.386979  6.602602  -20.491047  1.179163  19.811915  -1.16036  19.030307  11.833457  1.885949  8.463092  -2.787811  -2.867174  -14.930278  -7.81558  12.72264  10.702625  15.772874  1.662708  0.863334  -0.766454  -2.095255  1.236793  -2.20678  -5.685477  3.454668  -2.20678  -5.685477  3.454669  -18.947041  34.329926  -6.789599  148.911625  72.981392  -156.492909  11.55524  -15.033175  53.046864  83.84963  11.163287  -9.524162  -12.486948  2.00746  16.546777  51.757926  21.623707  23.158728  -29.175451  -5.089963  -119.813054  72.634748  1.657323  -27.58224  12.45244  3.479989  1.820515  9.326182  2.648408  1.294604  
0.0  93.25843  0.0  -5.197478  -36.469083  -93.344203  5.614598  -21.449906  0.516124  20.394411  -1.182821  21.616683  10.921594  2.129055  7.90651  -3.901448  -3.4974  -14.700243  -7.150102  13.000086  11.71155  15.665813  1.971582  0.764508  -0.847209  -2.219359  1.228612  -2.434287  -6.020558  3.444539  -2.434287  -6.020558  3.444539  -16.606062  35.555139  -5.718242  150.549976  72.132773  -155.486733  11.674318  -14.895665  55.474226  83.800156  10.479345  -10.382703  -12.191638  2.232944  17.077054  51.610656  22.403212  22.964359  -29.025853  -5.243058  -120.09036  72.787809  1.923348  -27.79293  12.352383  3.550329  2.007717  9.249768  2.70466  1.434145  
0.0  93.25843  0.0  -5.323466  -35.408617  -93.588071  4.836914  -21.972904  -0.233607  19.850953  -0.852734  23.452528  10.940966  2.255869  7.902153  -5.005483  -3.626193  -14.455908  -6.616894  13.23413  12.601381  15.635368  2.311945  0.672595  -0.891614  -2.265926  1.191244  -2.55513  -6.146917  3.348293  -2.55513  -6.146917  3.348292  -16.27971  35.814699  -5.222047  151.416247  71.237198  -154.26978  10.866373  -14.535912  55.4897  83.744584  9.626217  -10.89722  -11.927174  2.302086  17.657923  51.426274  23.265205  22.905043  -28.810126  -5.371947  -120.42944  72.792145  2.226536  -27.783831  12.055988  3.553102  2.194802  9.026462  2.709403  1.576116  
0.0  93.25843  0.0  -5.429298  -33.969675  -93.898476  4.108516  -22.475938  -0.96619  19.017609  -0.416065  25.122916  11.332722  2.384301  8.134628  -6.568108  -3.632972  -14.100341  -6.126612  13.441149  13.447453  16.250831  2.854265  0.604415  -1.007601  -2.333256  1.161959  -2.873932  -6.326168  3.28218  -2.873932  -6.326168  3.28218  -15.708096  36.215206  -4.834719  152.299273  70.135067  -153.006576  10.029958  -14.277002  55.59511  83.828266  8.75326  -11.146249  -11.607399  2.60648  17.689882  51.570421  23.827241  23.139888  -28.555941  -5.49081  -120.809648  72.785716  2.613508  -27.511522  11.827306  3.5571  2.44794  8.853539  2.716444  1.767219  
0.0  93.25843  0.0  -5.494281  -32.094733  -94.247528  3.426827  -22.833474  -1.690657  17.968638  -0.006563  26.568736  11.338506  2.489988  8.049356  -8.351913  -3.442879  -13.686592  -5.644964  13.660409  14.314058  16.317283  3.123137  0.525435  -1.130122  -2.380427  1.126793  -3.208912  -6.450548  3.200113  -3.208912  -6.450548  3.200113  -15.31046  36.642319  -4.485519  153.117431  68.855733  -151.803498  9.256692  -14.090669  55.817746  84.216031  8.026518  -11.437923  -11.255903  2.687321  18.166959  51.379602  24.86549  23.029697  -28.306139  -5.58371  -121.170516  72.838315  3.019067  -27.110284  11.392861  3.611182  2.636374  8.526414  2.758715  1.910004  
0.0  93.25843  0.0  -5.574309  -29.732508  -94.639178  2.763345  -22.963975  -2.32109  16.659186  0.278883  27.662238  11.414484  2.583143  8.065322  -10.351538  -3.12395  -13.139293  -5.307968  13.751753  15.20667  16.264836  3.365374  0.358713  -1.300699  -2.429028  1.106972  -3.67717  -6.575929  3.165425  -3.67717  -6.575929  3.165426  -14.833472  37.182589  -4.19262  153.819072  67.418566  -150.64583  8.553642  -13.919045  56.166778  84.983128  7.541905  -12.069479  -10.805314  2.839708  18.579744  51.165165  26.008058  22.746023  -28.104669  -5.638409  -121.478513  72.889208  3.402039  -26.733337  10.936361  3.69653  2.796344  8.1827  2.823561  2.031061  
0.0  93.25843  0.0  -5.735701  -26.923724  -94.988207  2.242963  -23.021064  -3.0114  15.015048  0.5136  28.469922  11.371348  2.647002  8.004963  -12.131719  -2.777063  -12.566113  -5.511722  13.915839  15.986503  16.146977  3.603808  0.231432  -1.483717  -2.472655  1.070456  -4.177613  -6.688368  3.08656  -4.177613  -6.688368  3.08656  -14.349436  37.738565  -3.738724  154.456021  66.077171  -149.579249  7.850504  -13.566472  56.694227  86.040824  7.281668  -13.153678  -10.26855  2.901231  18.969766  50.840559  27.2204  22.495895  -28.035202  -5.687093  -121.745666  72.869952  3.782363  -26.428978  10.297935  3.773668  2.941058  7.702692  2.880837  2.14204  
0.0  93.25843  0.0  -6.02999  -23.793242  -95.321755  2.006349  -23.179961  -3.744311  13.041514  0.758778  29.037413  11.246559  2.695163  7.964559  -13.965156  -2.493152  -11.84445  -5.914187  14.078617  16.677785  16.056228  3.86946  0.153495  -1.633501  -2.515807  1.010895  -4.584552  -6.803154  2.941722  -4.584551  -6.803154  2.941721  -13.860537  38.232604  -3.008335  155.001809  64.872214  -148.543529  7.184452  -12.936791  57.346503  87.169767  7.170782  -14.596288  -9.664863  2.827026  19.530846  50.265647  28.594062  22.228771  -28.038216  -5.776586  -121.996358  72.789996  4.205257  -26.071673  9.38618  3.788443  3.149329  7.017748  2.89058  2.303515  
0.0  93.25843  0.0  -6.394986  -20.368118  -95.663732  1.969725  -23.359372  -4.538868  10.752395  0.979531  29.397301  10.876028  2.76015  7.843867  -15.994705  -1.964127  -11.114152  -6.771031  14.149261  17.230261  15.833561  4.169735  0.018899  -1.728224  -2.546305  0.917703  -4.836254  -6.888968  2.698469  -4.836254  -6.888968  2.698469  -13.402038  38.574306  -1.952178  155.63434  63.528727  -147.273373  6.710846  -12.13322  57.982711  88.193819  7.117404  -16.119796  -9.26582  2.69397  20.300691  49.642079  30.109599  21.951382  -28.086535  -5.97019  -122.2946  72.450428  4.645543  -25.738038  8.076682  3.706507  3.423712  6.034837  2.825798  2.518362  
0.0  93.25843  0.0  -6.790481  -16.684186  -96.002124  1.908572  -23.542498  -5.37174  8.298577  1.243674  29.572739  10.384257  2.803163  7.707242  -17.902081  -1.147709  -10.500777  -8.121068  14.095481  17.827013  15.747824  4.411359  -0.119211  -1.76262  -2.569868  0.793091  -4.918705  -6.961258  2.362407  -4.918706  -6.961259  2.362407  -12.87757  38.697995  -0.631429  156.075319  61.770653  -146.000076  6.340911  -11.257878  58.642701  89.047778  7.141672  -17.440243  -9.20683  2.712358  21.294782  49.101797  31.80216  21.523174  -28.178425  -6.187648  -122.673087  71.574129  5.059412  -25.544776  6.345985  3.561163  3.721798  4.736456  2.709968  2.753781  
0.0  93.25843  0.0  -7.215452  -12.767015  -96.337838  1.498022  -23.72741  -6.185921  5.838552  1.636244  29.601929  9.991585  2.76416  7.572983  -19.737453  -0.369889  -9.742382  -9.701492  14.105782  18.187579  15.692089  4.699237  -0.278515  -1.768547  -2.599943  0.659987  -4.922188  -7.053216  2.000591  -4.922188  -7.053217  2.000591  -12.287026  38.664524  0.744724  156.439322  59.567608  -144.992877  6.028325  -10.359418  59.635749  89.710722  7.419989  -18.451668  -9.219965  2.816924  22.334878  48.670073  33.807098  21.106215  -28.26071  -6.473376  -122.985125  70.387108  5.589486  -25.451422  4.351783  3.439571  3.954133  3.240741  2.608109  2.940368  
0.0  93.25843  0.0  -7.666446  -8.617224  -96.687768  0.327576  -23.95992  -6.896749  3.809214  2.115237  29.561053  9.807801  2.657679  7.506806  -21.543598  0.211671  -8.712969  -11.348991  14.224804  18.13803  16.181561  4.970951  -0.354119  -1.780368  -2.628375  0.563843  -4.945411  -7.137761  1.740565  -4.945411  -7.137761  1.740565  -11.586112  38.427922  1.944111  156.94036  57.077828  -144.366619  5.962517  -9.399791  61.250588  90.187125  8.057751  -19.261017  -9.1344  3.053135  23.012602  48.509507  36.041065  20.8126  -28.365588  -6.781473  -123.241135  69.304653  6.307149  -25.210675  2.311371  3.330642  3.98842  1.711369  2.513229  2.977914  
0.0  93.25843  0.0  -8.143545  -4.292479  -97.04731  -1.684031  -24.280691  -7.452684  2.422002  2.666577  29.453058  9.743432  2.431816  7.451856  -23.165492  0.720064  -7.648437  -13.199738  14.339234  17.924825  16.106954  5.063172  -0.453798  -1.779249  -2.659988  0.491756  -4.935638  -7.229577  1.545314  -4.935638  -7.229577  1.545314  -10.786179  37.991961  3.05796  157.468172  54.612889  -144.168269  6.200052  -8.172834  63.419719  90.779847  8.994009  -20.055629  -8.865881  3.344666  23.470563  48.339966  38.583902  20.696169  -28.717373  -7.001324  -123.463105  68.56933  7.328667  -24.856766  0.224907  3.210159  3.878034  0.148254  2.409161  2.906582  
0.0  93.25843  0.0  -8.607728  0.130953  -97.431968  -4.151149  -24.628262  -7.880448  1.581943  3.148542  29.270653  9.671948  2.105183  7.405123  -24.733081  1.307521  -6.569067  -15.11515  14.321104  17.637873  16.256094  5.127705  -0.49655  -1.733343  -2.674362  0.407898  -4.800954  -7.276153  1.311458  -4.800954  -7.276153  1.311458  -9.78791  37.378533  4.502374  157.488852  52.430698  -144.522937  6.669389  -6.875352  65.914278  91.576066  9.985909  -21.033032  -8.57501  3.747407  23.983679  48.041127  41.347325  20.572499  -29.607715  -6.919  -123.566414  68.07222  8.731818  -24.48857  -1.998298  2.999838  3.770064  -1.51697  2.237685  2.836754  
0.0  93.25843  0.0  -9.025449  4.597682  -97.883879  -6.708173  -24.924574  -8.190113  0.998402  3.477785  28.97112  9.558343  1.70469  7.327475  -26.218098  1.936427  -5.390751  -17.19514  14.248071  17.162367  16.109779  5.14002  -0.541106  -1.598654  -2.673174  0.29485  -4.418922  -7.283458  0.986491  -4.418922  -7.283457  0.986491  -8.94759  36.685551  6.190727  156.352366  50.633345  -146.016153  6.981905  -5.739372  68.735745  92.390212  10.804855  -22.068016  -8.635012  4.312282  24.65767  47.729472  44.350341  20.597096  -30.950984  -6.590417  -123.631386  67.527584  10.516121  -24.116697  -4.601415  2.741783  3.70713  -3.467195  2.028657  2.800661  
0.0  93.25843  0.0  -9.411428  8.907549  -98.361109  -8.863185  -25.10824  -8.423351  0.521912  3.542589  28.480304  9.369282  1.256164  7.309284  -27.546024  2.524938  -4.195866  -19.277741  14.138737  16.547803  15.897555  5.165289  -0.525207  -1.33585  -2.639645  0.188803  -3.685542  -7.202135  0.66459  -3.685542  -7.202134  0.66459  -8.591239  35.818937  7.552728  153.558634  49.205232  -149.169351  6.824843  -5.074427  71.786193  92.811115  11.294209  -22.815031  -9.017675  4.741583  25.301795  47.37458  47.677789  20.878935  -32.210784  -6.239505  -123.751153  66.785196  12.458588  -23.654642  -7.636238  2.426781  3.559717  -5.740691  1.776012  2.700227  
0.0  93.25843  0.0  -9.745136  12.905476  -98.834117  -10.464685  -25.234389  -8.691825  -0.03231  3.536703  27.778528  9.147148  0.740604  7.270943  -28.628674  3.039445  -3.025456  -21.249226  14.060731  15.834721  15.637038  5.14036  -0.505541  -0.974528  -2.555909  0.116772  -2.685367  -6.980265  0.423889  -2.685367  -6.980266  0.423889  -8.622016  34.718447  8.350181  149.500662  48.053807  -153.619544  6.072415  -4.759879  74.866372  92.640899  11.417826  -23.102924  -9.40739  4.919321  25.761483  47.329214  51.362274  21.719291  -32.859457  -6.192944  -123.953027  65.896719  14.439105  -22.971793  -10.926823  1.934381  3.315099  -8.205116  1.392086  2.521645  
